####
#
# OBJ File Generated by Meshlab
#
####
# Object new_collider.obj
#
# Vertices: 26
# Faces: 48
#
####
vn -0.661732 -0.707277 0.248737
v -0.001932 -0.012913 -0.000822
vn 0.658400 -0.620610 0.425855
v 0.037984 -0.012913 -0.000822
vn -0.706778 -0.707435 0.001030
v -0.001932 -0.012913 -0.033268
vn 0.730164 -0.673202 -0.116877
v 0.037984 -0.012913 -0.033268
vn -0.661721 0.707275 0.248772
v -0.001932 0.013063 -0.000822
vn 0.658394 0.620612 0.425862
v 0.037984 0.013063 -0.000822
vn -0.706778 0.707435 0.001030
v -0.001932 0.013063 -0.033268
vn 0.730164 0.673202 -0.116877
v 0.037984 0.013063 -0.033268
vn 0.671669 -0.705055 -0.227505
v 0.027504 -0.012913 -0.065165
vn -0.707434 -0.706779 0.001031
v -0.002025 -0.012913 -0.065165
vn -0.707434 0.706779 0.001031
v -0.002025 0.013063 -0.065165
vn 0.671669 0.705055 -0.227505
v 0.027504 0.013063 -0.065165
vn 0.665600 -0.697071 -0.266585
v 0.020267 -0.012913 -0.085905
vn -0.707107 -0.707107 0.000000
v -0.002025 -0.012913 -0.085905
vn -0.707107 0.707107 -0.000000
v -0.002025 0.013063 -0.085905
vn 0.665600 0.697071 -0.266585
v 0.020267 0.013063 -0.085905
vn 0.636524 -0.693647 -0.337180
v 0.011517 -0.012913 -0.105178
vn -0.707376 -0.706837 -0.000848
v -0.002025 -0.012913 -0.105178
vn -0.707376 0.706837 -0.000848
v -0.002025 0.013063 -0.105178
vn 0.636524 0.693648 -0.337180
v 0.011517 0.013063 -0.105178
vn -0.226488 -0.541871 -0.809370
v -0.001972 -0.012913 -0.127273
vn -0.226487 0.541871 -0.809370
v -0.001972 0.013063 -0.127273
vn -0.528907 -0.378759 0.759473
v -0.000476 -0.008797 0.005670
vn 0.179657 -0.419731 0.889690
v 0.026507 -0.008797 0.005670
vn 0.179658 0.419682 0.889714
v 0.026507 0.008946 0.005670
vn -0.528914 0.378716 0.759490
v -0.000476 0.008946 0.005670
# 26 vertices, 0 vertices normals

f 2//2 1//1 3//3
f 8//8 4//4 9//9
f 8//8 7//7 5//5
f 1//1 2//2 24//24
f 7//7 3//3 1//1
f 4//4 8//8 6//6
f 12//12 9//9 13//13
f 3//3 10//10 9//9
f 7//7 8//8 12//12
f 3//3 7//7 11//11
f 14//14 18//18 17//17
f 10//10 14//14 13//13
f 11//11 12//12 16//16
f 10//10 11//11 15//15
f 20//20 22//22 19//19
f 15//15 16//16 20//20
f 14//14 15//15 19//19
f 16//16 13//13 17//17
f 18//18 19//19 22//22
f 20//20 17//17 21//21
f 18//18 21//21 17//17
f 5//5 1//1 23//23
f 2//2 6//6 25//25
f 5//5 26//26 25//25
f 26//26 23//23 24//24
f 2//2 3//3 4//4
f 8//8 9//9 12//12
f 8//8 5//5 6//6
f 1//1 24//24 23//23
f 7//7 1//1 5//5
f 4//4 6//6 2//2
f 12//12 13//13 16//16
f 3//3 9//9 4//4
f 7//7 12//12 11//11
f 3//3 11//11 10//10
f 14//14 17//17 13//13
f 10//10 13//13 9//9
f 11//11 16//16 15//15
f 10//10 15//15 14//14
f 15//15 20//20 19//19
f 14//14 19//19 18//18
f 16//16 17//17 20//20
f 18//18 22//22 21//21
f 20//20 21//21 22//22
f 5//5 23//23 26//26
f 2//2 25//25 24//24
f 5//5 25//25 6//6
f 26//26 24//24 25//25
# 48 faces, 0 coords texture

# End of File
